<?xml version="1.0" encoding="UTF-8"?><svg id="Tree" xmlns="http://www.w3.org/2000/svg" viewBox="0 0 598.22 839.24"><defs><style>.cls-1{fill:#dd8246;}.cls-2{fill:#59371e;}</style></defs><path class="cls-2" d="m421.85,524.87l-45.17,30.12,82.68,284.25h-231.43s91.11-91.02,91.11-95.64-48.63-249.9-48.63-249.9c0,0,1.89-12.6,4.88-32.16l-21.87-9.8-181.6,74.67,134.9-95.6L30.26,351.74l248.73,85.64c4.21-27.5,9.47-61.49,14.54-93.41l-172.08-63.24-110.67,43.73,79.29-55.27-79.29-29.14,196.66,42.08L108.18,41.35l73.2,136.44,31.47-10.03v-31.61l19.63,25.35,47.13-15.04-36.59,28.65-44.42,34.78,42.64,79.47,25.89,5.54,33.44,5.3c2.02-12.38,3.9-23.55,5.51-32.78l-26.47-70.23,37.47,38.64,8.96-7.98c12.07-59.18,42.56-208.96,45.56-225.34-2.01,16.14-13.39,160-17.08,206.83l110.77-68.12-37.55-76.5,50.78,68.37,98.49-60.57-95.45,64.66-13.7,9.28-114.49,77.55-.03.03-17.81,15.33-12.74,50.11c3.93,20.34,8.49,45.09,13.05,70.33l182.73-176.9-71.05,84.52,139.88,6.38-156.24,13.07-51.51,61.28,11.65,100.98-27.25-82.42-22.23,26.44c9.9,55.64,18.38,105.18,18.38,105.18l5.23,18,62.31-21.4,123.3-143.2-86.04,130.41,43.18-14.83-68.03,45.36,116.08,22.17-134.38-9.98Z"/><g id="Leaves_3"><polygon class="cls-1" points="424.66 73.41 474.19 22.96 454.01 73.41 424.66 73.41"/><polygon class="cls-1" points="578.33 92.69 507.64 91.73 558.05 71.47 578.33 92.69"/><polygon class="cls-1" points="381.8 64.17 327.13 19.35 379.18 34.94 381.8 64.17"/><polygon class="cls-1" points="90.31 92.21 139.84 41.76 119.66 92.21 90.31 92.21"/><polygon class="cls-1" points="162.83 161.22 226.92 191.05 172.63 188.88 162.83 161.22"/><polygon class="cls-1" points="75.6 251.94 5.97 239.75 58.96 227.76 75.6 251.94"/><polygon class="cls-1" points="89.93 253.45 151.22 288.68 97.32 281.85 89.93 253.45"/><polygon class="cls-1" points="259.61 245.84 309.14 195.4 288.96 245.84 259.61 245.84"/><polygon class="cls-1" points="468.69 301.79 518.22 251.34 498.04 301.79 468.69 301.79"/><polygon class="cls-1" points="522.43 199.1 453.46 214.62 497.78 183.18 522.43 199.1"/><polygon class="cls-1" points="360.85 418.34 429.77 402.62 385.56 434.19 360.85 418.34"/><polygon class="cls-1" points="57.92 395.06 48.48 325 75.93 371.89 57.92 395.06"/><polygon class="cls-1" points="77.96 536.59 127.49 486.15 107.31 536.59 77.96 536.59"/><polygon class="cls-1" points="501.18 359.51 564.6 390.76 510.37 387.39 501.18 359.51"/><polygon class="cls-1" points="504.37 505 471.53 442.4 513.36 477.06 504.37 505"/><polygon class="cls-1" points="497.67 555.45 547.2 505 527.02 555.45 497.67 555.45"/><polygon class="cls-1" points="180.22 409.1 250.86 411.85 199.95 430.83 180.22 409.1"/></g><g id="Leaves_1"><polygon class="cls-1" points="575.3 305.98 598.22 275.88 553.17 248.03 575.3 305.98"/><polygon class="cls-1" points="3.67 296.48 0 334.14 52.97 334.14 3.67 296.48"/><polygon class="cls-1" points="64.14 482.26 60.47 519.93 113.44 519.93 64.14 482.26"/><polygon class="cls-1" points="97.76 29.35 94.1 67.02 147.06 67.02 97.76 29.35"/><polygon class="cls-1" points="572.77 110.51 597.09 81.53 553.41 51.57 572.77 110.51"/><polygon class="cls-1" points="342 23.42 372.61 45.67 399.45 0 342 23.42"/><polygon class="cls-1" points="405.96 41.76 402.29 79.43 455.26 79.43 405.96 41.76"/><polygon class="cls-1" points="398.98 252.23 395.31 289.89 448.28 289.89 398.98 252.23"/><polygon class="cls-1" points="520.17 344.27 516.5 381.93 569.46 381.93 520.17 344.27"/><polygon class="cls-1" points="521.89 519.93 518.22 557.59 571.18 557.59 521.89 519.93"/><polygon class="cls-1" points="235.27 292.16 272.01 301.19 279.61 248.77 235.27 292.16"/><polygon class="cls-1" points="263.44 203.79 286.76 233.59 325.11 197.06 263.44 203.79"/><polygon class="cls-1" points="331.65 74.26 327.98 111.92 380.95 111.92 331.65 74.26"/><polygon class="cls-1" points="444.62 104.05 440.95 141.71 493.91 141.71 444.62 104.05"/><polygon class="cls-1" points="216.03 123.56 212.36 161.22 265.33 161.22 216.03 123.56"/><polygon class="cls-1" points="183.04 396.46 199.86 430.35 244.8 402.32 183.04 396.46"/><polygon class="cls-1" points="372.5 402.04 368.83 439.7 421.8 439.7 372.5 402.04"/><polygon class="cls-1" points="411.53 482.26 407.86 519.93 460.83 519.93 411.53 482.26"/></g></svg>