<?xml version="1.0" encoding="UTF-8"?><svg xmlns="http://www.w3.org/2000/svg" viewBox="0 0 698.32 399.27"><defs><style>.cls-1{fill:#dd8246;}.cls-2{fill:#59371e;}</style></defs><g id="_3"><polyline class="cls-1" points="141.63 220.97 150.83 232.18 152.73 253.15 87.36 279.62 33.56 270.63 10.19 222.44 0 176.62 63.17 136.59"/><polygon class="cls-2" points="169.33 250.15 100.88 224.73 58.79 170 49.53 121.72 96.61 120.37 131.4 135.21 127.04 110.48 175.6 93.31 175.6 127.32 167.11 126.28 144.3 145.23 170.21 184.76 169.33 250.15"/></g><g id="_2"><polyline class="cls-1" points="638.56 46.6 646.74 40.24 660.46 41.49 698.32 80.98 685.93 123.78 625.98 159.49 588.35 140.26 576.07 102.32"/><polygon class="cls-2" points="660.24 26.84 636.79 82.05 597.16 110.65 565.07 111.98 569.05 71.43 582.2 43.63 565.81 43.99 559.73 0 581.67 4.65 580.12 11.79 589.99 33.95 618.15 17.14 660.24 26.84"/></g><g id="Front"><polyline class="cls-1" points="453.08 197.36 471.52 192.93 497.26 202.66 530.06 297.19 499.69 375.53 395.66 399.27 320.16 338.6 309.12 241.5"/><polygon class="cls-2" points="504.99 182.33 434.26 247.42 345.9 265.7 283.85 249.05 346.4 160.48 312.29 109.58 370.49 60.86 407.6 92.59 356.27 113.4 365.54 151.03 489.3 153.62 504.99 182.33"/></g></svg>